<svg width="592" height="38" viewBox="0 0 592 38" fill="none" xmlns="http://www.w3.org/2000/svg">
<path d="M7.65 38L10.9 23.95L0 14.5L14.4 13.25L20 0L25.6 13.25L40 14.5L29.1 23.95L32.35 38L20 30.55L7.65 38Z" fill="#E31A1C"/>
<path d="M55.65 38L58.9 23.95L48 14.5L62.4 13.25L68 0L73.6 13.25L88 14.5L77.1 23.95L80.35 38L68 30.55L55.65 38Z" fill="#E31A1C"/>
<path d="M103.65 38L106.9 23.95L96 14.5L110.4 13.25L116 0L121.6 13.25L136 14.5L125.1 23.95L128.35 38L116 30.55L103.65 38Z" fill="#E31A1C"/>
<path d="M151.65 38L154.9 23.95L144 14.5L158.4 13.25L164 0L169.6 13.25L184 14.5L173.1 23.95L176.35 38L164 30.55L151.65 38Z" fill="#E31A1C"/>
<path d="M205.7 29.65L212 25.85L218.3 29.7L216.65 22.5L222.2 17.7L214.9 17.05L212 10.25L209.1 17L201.8 17.65L207.35 22.5L205.7 29.65ZM199.65 38L202.9 23.95L192 14.5L206.4 13.25L212 0L217.6 13.25L232 14.5L221.1 23.95L224.35 38L212 30.55L199.65 38Z" fill="#D4D4D8"/>
</svg>
