<svg width="352" height="24" viewBox="0 0 352 24" fill="none" xmlns="http://www.w3.org/2000/svg">
<path d="M3.825 21.5L5.45 14.475L0 9.75L7.2 9.125L10 2.5L12.8 9.125L20 9.75L14.55 14.475L16.175 21.5L10 17.775L3.825 21.5Z" fill="#E31A1C"/>
<path d="M27.825 21.5L29.45 14.475L24 9.75L31.2 9.125L34 2.5L36.8 9.125L44 9.75L38.55 14.475L40.175 21.5L34 17.775L27.825 21.5Z" fill="#E31A1C"/>
<path d="M51.825 21.5L53.45 14.475L48 9.75L55.2 9.125L58 2.5L60.8 9.125L68 9.75L62.55 14.475L64.175 21.5L58 17.775L51.825 21.5Z" fill="#E31A1C"/>
<path d="M75.825 21.5L77.45 14.475L72 9.75L79.2 9.125L82 2.5L84.8 9.125L92 9.75L86.55 14.475L88.175 21.5L82 17.775L75.825 21.5Z" fill="#E31A1C"/>
<path d="M109.15 17.35L108.325 13.75L111.1 11.35L107.45 11.025L106 7.625V15.425L109.15 17.35ZM99.825 21.5L101.45 14.475L96 9.75L103.2 9.125L106 2.5L108.8 9.125L116 9.75L110.55 14.475L112.175 21.5L106 17.775L99.825 21.5Z" fill="#E31A1C"/>
<path d="M128.784 14.92V12.712L133.84 5.48H136.896V12.552H138.208V14.92H136.896V17H134.16V14.92H128.784ZM134.352 8.488L131.664 12.552H134.352V8.488ZM141.104 17.128C140.624 17.128 140.232 16.9867 139.928 16.704C139.624 16.4213 139.472 16.072 139.472 15.656C139.472 15.2293 139.624 14.872 139.928 14.584C140.232 14.296 140.624 14.152 141.104 14.152C141.573 14.152 141.96 14.296 142.264 14.584C142.568 14.872 142.72 15.2293 142.72 15.656C142.72 16.072 142.568 16.4213 142.264 16.704C141.96 16.9867 141.573 17.128 141.104 17.128ZM145.984 10.728C144.981 10.1947 144.48 9.35733 144.48 8.216C144.48 7.64 144.629 7.11467 144.928 6.64C145.227 6.16533 145.68 5.78667 146.288 5.504C146.896 5.22133 147.643 5.08 148.528 5.08C149.413 5.08 150.157 5.22133 150.76 5.504C151.363 5.78667 151.813 6.16533 152.112 6.64C152.411 7.11467 152.56 7.64 152.56 8.216C152.56 8.792 152.424 9.29333 152.152 9.72C151.88 10.1467 151.515 10.4827 151.056 10.728C151.632 11.0053 152.075 11.3867 152.384 11.872C152.693 12.3573 152.848 12.9253 152.848 13.576C152.848 14.3333 152.656 14.9867 152.272 15.536C151.888 16.0853 151.368 16.504 150.712 16.792C150.056 17.08 149.328 17.224 148.528 17.224C147.728 17.224 147 17.08 146.344 16.792C145.688 16.504 145.168 16.0853 144.784 15.536C144.4 14.9867 144.208 14.3333 144.208 13.576C144.208 12.9147 144.363 12.3413 144.672 11.856C144.981 11.3707 145.419 10.9947 145.984 10.728ZM149.904 8.632C149.904 8.19467 149.779 7.856 149.528 7.616C149.277 7.376 148.944 7.256 148.528 7.256C148.112 7.256 147.779 7.37867 147.528 7.624C147.277 7.86933 147.152 8.21067 147.152 8.648C147.152 9.064 147.28 9.392 147.536 9.632C147.792 9.872 148.123 9.992 148.528 9.992C148.933 9.992 149.264 9.86933 149.52 9.624C149.776 9.37867 149.904 9.048 149.904 8.632ZM148.528 11.912C148.027 11.912 147.621 12.048 147.312 12.32C147.003 12.592 146.848 12.968 146.848 13.448C146.848 13.896 147 14.264 147.304 14.552C147.608 14.84 148.016 14.984 148.528 14.984C149.04 14.984 149.443 14.84 149.736 14.552C150.029 14.264 150.176 13.896 150.176 13.448C150.176 12.9787 150.024 12.6053 149.72 12.328C149.416 12.0507 149.019 11.912 148.528 11.912Z" fill="white"/>
</svg>
