<svg width="16" height="15" viewBox="0 0 16 15" fill="none" xmlns="http://www.w3.org/2000/svg">
<path d="M1.66667 15C1.20833 15 0.815972 14.8368 0.489583 14.5104C0.163194 14.184 0 13.7917 0 13.3333V1.66667C0 1.20833 0.163194 0.815972 0.489583 0.489583C0.815972 0.163194 1.20833 0 1.66667 0H13.3333C13.7917 0 14.184 0.163194 14.5104 0.489583C14.8368 0.815972 15 1.20833 15 1.66667H8.33333C7.34722 1.66667 6.54514 1.97569 5.92708 2.59375C5.30903 3.21181 5 4.01389 5 5V10C5 10.9861 5.30903 11.7882 5.92708 12.4062C6.54514 13.0243 7.34722 13.3333 8.33333 13.3333H15C15 13.7917 14.8368 14.184 14.5104 14.5104C14.184 14.8368 13.7917 15 13.3333 15H1.66667ZM8.33333 11.6667C7.875 11.6667 7.48264 11.5035 7.15625 11.1771C6.82986 10.8507 6.66667 10.4583 6.66667 10V5C6.66667 4.54167 6.82986 4.14931 7.15625 3.82292C7.48264 3.49653 7.875 3.33333 8.33333 3.33333H14.1667C14.625 3.33333 15.0174 3.49653 15.3438 3.82292C15.6701 4.14931 15.8333 4.54167 15.8333 5V10C15.8333 10.4583 15.6701 10.8507 15.3438 11.1771C15.0174 11.5035 14.625 11.6667 14.1667 11.6667H8.33333ZM10.8333 8.75C11.1944 8.75 11.4931 8.63194 11.7292 8.39583C11.9653 8.15972 12.0833 7.86111 12.0833 7.5C12.0833 7.13889 11.9653 6.84028 11.7292 6.60417C11.4931 6.36806 11.1944 6.25 10.8333 6.25C10.4722 6.25 10.1736 6.36806 9.9375 6.60417C9.70139 6.84028 9.58333 7.13889 9.58333 7.5C9.58333 7.86111 9.70139 8.15972 9.9375 8.39583C10.1736 8.63194 10.4722 8.75 10.8333 8.75Z" fill="white"/>
</svg>
