<svg width="41" height="41" viewBox="0 0 41 41" fill="none" xmlns="http://www.w3.org/2000/svg">
<path d="M7.2 15.9911L11.1 17.6411C11.5667 16.7078 12.05 15.8078 12.55 14.9411C13.05 14.0745 13.6 13.2078 14.2 12.3411L11.4 11.7911L7.2 15.9911ZM14.3 20.1411L20 25.7911C21.4 25.2578 22.9 24.4411 24.5 23.3411C26.1 22.2411 27.6 20.9911 29 19.5911C31.3333 17.2578 33.1583 14.6661 34.475 11.8161C35.7917 8.96613 36.3667 6.34113 36.2 3.94113C33.8 3.77446 31.1667 4.34946 28.3 5.66613C25.4333 6.9828 22.8333 8.8078 20.5 11.1411C19.1 12.5411 17.85 14.0411 16.75 15.6411C15.65 17.2411 14.8333 18.7411 14.3 20.1411ZM23.2 16.8911C22.4333 16.1245 22.05 15.1828 22.05 14.0661C22.05 12.9495 22.4333 12.0078 23.2 11.2411C23.9667 10.4745 24.9167 10.0911 26.05 10.0911C27.1833 10.0911 28.1333 10.4745 28.9 11.2411C29.6667 12.0078 30.05 12.9495 30.05 14.0661C30.05 15.1828 29.6667 16.1245 28.9 16.8911C28.1333 17.6578 27.1833 18.0411 26.05 18.0411C24.9167 18.0411 23.9667 17.6578 23.2 16.8911ZM24.15 32.9411L28.35 28.7411L27.8 25.9411C26.9333 26.5411 26.0667 27.0828 25.2 27.5661C24.3333 28.0495 23.4333 28.5245 22.5 28.9911L24.15 32.9411ZM39.8 0.291129C40.4333 4.32446 40.0417 8.24946 38.625 12.0661C37.2083 15.8828 34.7667 19.5245 31.3 22.9911L32.3 27.9411C32.4333 28.6078 32.4 29.2578 32.2 29.8911C32 30.5245 31.6667 31.0745 31.2 31.5411L22.8 39.9411L18.6 30.0911L10.05 21.5411L0.2 17.3411L8.55 8.94113C9.01667 8.47446 9.575 8.14113 10.225 7.94113C10.875 7.74113 11.5333 7.7078 12.2 7.84113L17.15 8.84113C20.6167 5.37446 24.25 2.92446 28.05 1.49113C31.85 0.0577958 35.7667 -0.342204 39.8 0.291129ZM3.75 27.8911C4.91667 26.7245 6.34167 26.1328 8.025 26.1161C9.70833 26.0995 11.1333 26.6745 12.3 27.8411C13.4667 29.0078 14.0417 30.4328 14.025 32.1161C14.0083 33.7995 13.4167 35.2245 12.25 36.3911C11.4167 37.2245 10.025 37.9411 8.075 38.5411C6.125 39.1411 3.43333 39.6745 0 40.1411C0.466667 36.7078 1 34.0161 1.6 32.0661C2.2 30.1161 2.91667 28.7245 3.75 27.8911ZM6.6 30.6911C6.26667 31.0245 5.93333 31.6328 5.6 32.5161C5.26667 33.3995 5.03333 34.2911 4.9 35.1911C5.8 35.0578 6.69167 34.8328 7.575 34.5161C8.45833 34.1995 9.06667 33.8745 9.4 33.5411C9.8 33.1411 10.0167 32.6578 10.05 32.0911C10.0833 31.5245 9.9 31.0411 9.5 30.6411C9.1 30.2411 8.61667 30.0495 8.05 30.0661C7.48333 30.0828 7 30.2911 6.6 30.6911Z" fill="#E31A1C"/>
</svg>
