<svg width="96" height="96" viewBox="0 0 96 96" fill="none" xmlns="http://www.w3.org/2000/svg">
<rect x="8" y="8" width="80" height="80" rx="12" fill="#BA1A1A" fill-opacity="0.1"/>
<g filter="url(#filter0_d_218_541)">
<rect x="8" y="8" width="80" height="80" rx="12" fill="#BA1A1A" fill-opacity="0.01" shape-rendering="crispEdges"/>
</g>
<path d="M48 58C48.5667 58 49.0417 57.8083 49.425 57.425C49.8083 57.0417 50 56.5667 50 56C50 55.4333 49.8083 54.9583 49.425 54.575C49.0417 54.1917 48.5667 54 48 54C47.4333 54 46.9583 54.1917 46.575 54.575C46.1917 54.9583 46 55.4333 46 56C46 56.5667 46.1917 57.0417 46.575 57.425C46.9583 57.8083 47.4333 58 48 58ZM46 50H50V38H46V50ZM48 68C45.2333 68 42.6333 67.475 40.2 66.425C37.7667 65.375 35.65 63.95 33.85 62.15C32.05 60.35 30.625 58.2333 29.575 55.8C28.525 53.3667 28 50.7667 28 48C28 45.2333 28.525 42.6333 29.575 40.2C30.625 37.7667 32.05 35.65 33.85 33.85C35.65 32.05 37.7667 30.625 40.2 29.575C42.6333 28.525 45.2333 28 48 28C50.7667 28 53.3667 28.525 55.8 29.575C58.2333 30.625 60.35 32.05 62.15 33.85C63.95 35.65 65.375 37.7667 66.425 40.2C67.475 42.6333 68 45.2333 68 48C68 50.7667 67.475 53.3667 66.425 55.8C65.375 58.2333 63.95 60.35 62.15 62.15C60.35 63.95 58.2333 65.375 55.8 66.425C53.3667 67.475 50.7667 68 48 68Z" fill="#BA1A1A"/>
<defs>
<filter id="filter0_d_218_541" x="0" y="0" width="96" height="96" filterUnits="userSpaceOnUse" color-interpolation-filters="sRGB">
<feFlood flood-opacity="0" result="BackgroundImageFix"/>
<feColorMatrix in="SourceAlpha" type="matrix" values="0 0 0 0 0 0 0 0 0 0 0 0 0 0 0 0 0 0 127 0" result="hardAlpha"/>
<feMorphology radius="8" operator="dilate" in="SourceAlpha" result="effect1_dropShadow_218_541"/>
<feOffset/>
<feComposite in2="hardAlpha" operator="out"/>
<feColorMatrix type="matrix" values="0 0 0 0 0.729412 0 0 0 0 0.101961 0 0 0 0 0.101961 0 0 0 0.05 0"/>
<feBlend mode="normal" in2="BackgroundImageFix" result="effect1_dropShadow_218_541"/>
<feBlend mode="normal" in="SourceGraphic" in2="effect1_dropShadow_218_541" result="shape"/>
</filter>
</defs>
</svg>
