<svg width="71" height="32" viewBox="0 0 71 32" fill="none" xmlns="http://www.w3.org/2000/svg">
<path d="M8.688 26.288C7.28 26.288 6.024 25.992 4.92 25.4C3.816 24.808 2.944 24 2.304 22.976C1.68 21.936 1.368 20.76 1.368 19.448V8.12H5.088V19.208C5.088 19.912 5.24 20.552 5.544 21.128C5.864 21.688 6.296 22.128 6.84 22.448C7.384 22.768 8 22.928 8.688 22.928C9.392 22.928 10.008 22.768 10.536 22.448C11.08 22.128 11.504 21.688 11.808 21.128C12.128 20.552 12.288 19.912 12.288 19.208V8.12H16.008V19.448C16.008 20.76 15.688 21.936 15.048 22.976C14.424 24 13.56 24.808 12.456 25.4C11.352 25.992 10.096 26.288 8.688 26.288ZM17.4872 30.8V12.896H20.8472V15.392L20.5352 14.672C20.9672 14.016 21.5512 13.512 22.2872 13.16C23.0392 12.792 23.8952 12.608 24.8552 12.608C26.1032 12.608 27.2312 12.912 28.2392 13.52C29.2472 14.128 30.0472 14.952 30.6392 15.992C31.2312 17.016 31.5272 18.168 31.5272 19.448C31.5272 20.712 31.2312 21.864 30.6392 22.904C30.0632 23.944 29.2712 24.768 28.2632 25.376C27.2552 25.984 26.1112 26.288 24.8312 26.288C23.9352 26.288 23.1032 26.128 22.3352 25.808C21.5832 25.472 20.9752 24.984 20.5112 24.344L21.0872 23.6V30.8H17.4872ZM24.3992 23.048C25.0712 23.048 25.6632 22.896 26.1752 22.592C26.6872 22.288 27.0872 21.864 27.3752 21.32C27.6632 20.776 27.8072 20.152 27.8072 19.448C27.8072 18.744 27.6632 18.128 27.3752 17.6C27.0872 17.056 26.6872 16.632 26.1752 16.328C25.6632 16.008 25.0712 15.848 24.3992 15.848C23.7592 15.848 23.1832 16 22.6712 16.304C22.1752 16.608 21.7832 17.032 21.4952 17.576C21.2232 18.12 21.0872 18.744 21.0872 19.448C21.0872 20.152 21.2232 20.776 21.4952 21.32C21.7832 21.864 22.1752 22.288 22.6712 22.592C23.1832 22.896 23.7592 23.048 24.3992 23.048ZM32.4356 30.8V12.896H35.7956V15.392L35.4836 14.672C35.9156 14.016 36.4996 13.512 37.2356 13.16C37.9876 12.792 38.8436 12.608 39.8036 12.608C41.0516 12.608 42.1796 12.912 43.1876 13.52C44.1956 14.128 44.9956 14.952 45.5876 15.992C46.1796 17.016 46.4756 18.168 46.4756 19.448C46.4756 20.712 46.1796 21.864 45.5876 22.904C45.0116 23.944 44.2196 24.768 43.2116 25.376C42.2036 25.984 41.0596 26.288 39.7796 26.288C38.8836 26.288 38.0516 26.128 37.2836 25.808C36.5316 25.472 35.9236 24.984 35.4596 24.344L36.0356 23.6V30.8H32.4356ZM39.3476 23.048C40.0196 23.048 40.6116 22.896 41.1236 22.592C41.6356 22.288 42.0356 21.864 42.3236 21.32C42.6116 20.776 42.7556 20.152 42.7556 19.448C42.7556 18.744 42.6116 18.128 42.3236 17.6C42.0356 17.056 41.6356 16.632 41.1236 16.328C40.6116 16.008 40.0196 15.848 39.3476 15.848C38.7076 15.848 38.1316 16 37.6196 16.304C37.1236 16.608 36.7316 17.032 36.4436 17.576C36.1716 18.12 36.0356 18.744 36.0356 19.448C36.0356 20.152 36.1716 20.776 36.4436 21.32C36.7316 21.864 37.1236 22.288 37.6196 22.592C38.1316 22.896 38.7076 23.048 39.3476 23.048ZM47.3841 26V7.832H50.9841V26H47.3841ZM54.4584 31.28C54.0744 31.28 53.6984 31.248 53.3304 31.184C52.9784 31.12 52.6664 31.016 52.3944 30.872V27.92C52.6184 27.984 52.8824 28.04 53.1864 28.088C53.4904 28.136 53.7704 28.16 54.0264 28.16C54.7304 28.16 55.2344 27.992 55.5384 27.656C55.8424 27.336 56.0904 26.968 56.2824 26.552L57.1704 24.512L57.1224 27.512L51.3624 12.896H55.2264L59.0424 23.288H57.6024L61.4184 12.896H65.2824L59.6664 27.224C59.3144 28.12 58.8824 28.872 58.3704 29.48C57.8584 30.088 57.2744 30.536 56.6184 30.824C55.9784 31.128 55.2584 31.28 54.4584 31.28Z" fill="#1A1A1A"/>
<path d="M66.471 26V22.4H70.071V26H66.471Z" fill="#E31A1C"/>
</svg>
